<mxfile host="Electron" agent="Mozilla/5.0 (Windows NT 10.0; Win64; x64) AppleWebKit/537.36 (KHTML, like Gecko) draw.io/26.1.1 Chrome/132.0.6834.210 Electron/34.3.3 Safari/537.36" version="26.1.1">
  <diagram name="Pagina-1" id="CiNbgBQ8qg2RI8DfVHGa">
    <mxGraphModel dx="2196" dy="1640" grid="1" gridSize="10" guides="1" tooltips="1" connect="1" arrows="1" fold="1" page="1" pageScale="1" pageWidth="827" pageHeight="1169" math="0" shadow="0">
      <root>
        <mxCell id="0" />
        <mxCell id="1" parent="0" />
        <mxCell id="eut7piU39nOxG2422utZ-2" value="LLMs agents&#xa;&#xa;&#xa;&#xa;&#xa;&#xa;&#xa;&#xa;&#xa;&#xa;&#xa;&#xa;&#xa;&#xa;&#xa;" style="whiteSpace=wrap;strokeWidth=2;fontStyle=1;fontSize=24;" vertex="1" parent="1">
          <mxGeometry x="340" y="300" width="991" height="508" as="geometry" />
        </mxCell>
        <mxCell id="eut7piU39nOxG2422utZ-19" style="edgeStyle=orthogonalEdgeStyle;rounded=0;orthogonalLoop=1;jettySize=auto;html=1;exitX=1;exitY=0.5;exitDx=0;exitDy=0;strokeWidth=3;" edge="1" parent="1" source="eut7piU39nOxG2422utZ-3" target="eut7piU39nOxG2422utZ-6">
          <mxGeometry relative="1" as="geometry">
            <Array as="points">
              <mxPoint x="1123" y="144" />
              <mxPoint x="1123" y="259" />
              <mxPoint x="360" y="259" />
              <mxPoint x="360" y="439" />
            </Array>
          </mxGeometry>
        </mxCell>
        <mxCell id="eut7piU39nOxG2422utZ-20" style="edgeStyle=orthogonalEdgeStyle;rounded=0;orthogonalLoop=1;jettySize=auto;html=1;exitX=1;exitY=0.5;exitDx=0;exitDy=0;strokeWidth=3;" edge="1" parent="1" source="eut7piU39nOxG2422utZ-6" target="eut7piU39nOxG2422utZ-8">
          <mxGeometry relative="1" as="geometry" />
        </mxCell>
        <mxCell id="eut7piU39nOxG2422utZ-6" value="Choose &#xa;Right Checklist &#xa;for the &#xa;Act" style="rhombus;strokeWidth=2;whiteSpace=wrap;fontStyle=0;fontSize=24;" vertex="1" parent="1">
          <mxGeometry x="400" y="300" width="278" height="278" as="geometry" />
        </mxCell>
        <mxCell id="eut7piU39nOxG2422utZ-22" style="edgeStyle=orthogonalEdgeStyle;rounded=0;orthogonalLoop=1;jettySize=auto;html=1;strokeWidth=3;" edge="1" parent="1" source="eut7piU39nOxG2422utZ-7" target="eut7piU39nOxG2422utZ-6">
          <mxGeometry relative="1" as="geometry" />
        </mxCell>
        <mxCell id="eut7piU39nOxG2422utZ-7" value="&#xa; &#xa;&#xa;&#xa;&#xa;LLM Agent : Choose Checklist" style="whiteSpace=wrap;strokeWidth=2;fontSize=19;fontStyle=2" vertex="1" parent="1">
          <mxGeometry x="454" y="640" width="170" height="160" as="geometry" />
        </mxCell>
        <mxCell id="eut7piU39nOxG2422utZ-8" value="Evaluate &#xa;Checklist &#xa;Points" style="rhombus;strokeWidth=2;whiteSpace=wrap;fontSize=24;" vertex="1" parent="1">
          <mxGeometry x="1000" y="300" width="278" height="278" as="geometry" />
        </mxCell>
        <mxCell id="eut7piU39nOxG2422utZ-27" value="" style="group" vertex="1" connectable="0" parent="1">
          <mxGeometry x="454" y="860" width="547" height="148" as="geometry" />
        </mxCell>
        <mxCell id="eut7piU39nOxG2422utZ-1" value="Analysis of results&#xa;&#xa;&#xa;&#xa;" style="whiteSpace=wrap;strokeWidth=2;fontStyle=1;fontSize=24;" vertex="1" parent="eut7piU39nOxG2422utZ-27">
          <mxGeometry width="547" height="148" as="geometry" />
        </mxCell>
        <mxCell id="eut7piU39nOxG2422utZ-10" value="Compare LLM Results with Human Evaluation" style="whiteSpace=wrap;strokeWidth=2;fontSize=24;" vertex="1" parent="eut7piU39nOxG2422utZ-27">
          <mxGeometry x="262" y="35" width="260" height="78" as="geometry" />
        </mxCell>
        <mxCell id="eut7piU39nOxG2422utZ-11" value="Gather All Results" style="whiteSpace=wrap;strokeWidth=2;fontSize=24;" vertex="1" parent="eut7piU39nOxG2422utZ-27">
          <mxGeometry x="25" y="47" width="187" height="54" as="geometry" />
        </mxCell>
        <mxCell id="eut7piU39nOxG2422utZ-17" value="" style="curved=1;startArrow=none;endArrow=block;exitX=1;exitY=0.5;entryX=0;entryY=0.5;rounded=0;" edge="1" parent="eut7piU39nOxG2422utZ-27" source="eut7piU39nOxG2422utZ-11" target="eut7piU39nOxG2422utZ-10">
          <mxGeometry relative="1" as="geometry">
            <Array as="points" />
          </mxGeometry>
        </mxCell>
        <mxCell id="eut7piU39nOxG2422utZ-28" value="" style="group" vertex="1" connectable="0" parent="1">
          <mxGeometry x="480" y="70" width="623" height="148" as="geometry" />
        </mxCell>
        <mxCell id="eut7piU39nOxG2422utZ-3" value="Gather Information&#xa;&#xa;&#xa;&#xa;" style="whiteSpace=wrap;strokeWidth=2;movable=1;resizable=1;rotatable=1;deletable=1;editable=1;locked=0;connectable=1;fontStyle=1;fontSize=24;" vertex="1" parent="eut7piU39nOxG2422utZ-28">
          <mxGeometry width="623" height="148" as="geometry" />
        </mxCell>
        <mxCell id="eut7piU39nOxG2422utZ-4" value="Gather Municipality Checklist" style="whiteSpace=wrap;strokeWidth=2;movable=1;resizable=1;rotatable=1;deletable=1;editable=1;locked=0;connectable=1;fontSize=24;" vertex="1" parent="eut7piU39nOxG2422utZ-28">
          <mxGeometry x="338" y="35" width="260" height="78" as="geometry" />
        </mxCell>
        <mxCell id="eut7piU39nOxG2422utZ-5" value="Download the Determine" style="whiteSpace=wrap;strokeWidth=2;movable=1;resizable=1;rotatable=1;deletable=1;editable=1;locked=0;connectable=1;fontSize=24;" vertex="1" parent="eut7piU39nOxG2422utZ-28">
          <mxGeometry x="25" y="47" width="238" height="54" as="geometry" />
        </mxCell>
        <mxCell id="eut7piU39nOxG2422utZ-12" value="" style="curved=1;startArrow=none;endArrow=block;exitX=1;exitY=0.5;entryX=0;entryY=0.5;rounded=0;movable=1;resizable=1;rotatable=1;deletable=1;editable=1;locked=0;connectable=1;" edge="1" parent="eut7piU39nOxG2422utZ-28" source="eut7piU39nOxG2422utZ-5" target="eut7piU39nOxG2422utZ-4">
          <mxGeometry relative="1" as="geometry">
            <Array as="points" />
          </mxGeometry>
        </mxCell>
        <mxCell id="eut7piU39nOxG2422utZ-25" style="edgeStyle=orthogonalEdgeStyle;rounded=0;orthogonalLoop=1;jettySize=auto;html=1;exitX=1;exitY=0.5;exitDx=0;exitDy=0;entryX=0;entryY=0.5;entryDx=0;entryDy=0;strokeWidth=3;" edge="1" parent="1" source="eut7piU39nOxG2422utZ-8" target="eut7piU39nOxG2422utZ-11">
          <mxGeometry relative="1" as="geometry">
            <Array as="points">
              <mxPoint x="1298" y="439" />
              <mxPoint x="1298" y="830" />
              <mxPoint x="459" y="830" />
              <mxPoint x="459" y="934" />
            </Array>
          </mxGeometry>
        </mxCell>
        <mxCell id="eut7piU39nOxG2422utZ-31" value="" style="shape=umlActor;verticalLabelPosition=bottom;verticalAlign=top;html=1;outlineConnect=0;fontSize=13;strokeWidth=3;" vertex="1" parent="1">
          <mxGeometry x="524" y="690" width="30" height="60" as="geometry" />
        </mxCell>
        <mxCell id="eut7piU39nOxG2422utZ-38" style="edgeStyle=orthogonalEdgeStyle;rounded=0;orthogonalLoop=1;jettySize=auto;html=1;strokeWidth=3;" edge="1" parent="1" source="eut7piU39nOxG2422utZ-39">
          <mxGeometry relative="1" as="geometry">
            <mxPoint x="1139" y="578" as="targetPoint" />
          </mxGeometry>
        </mxCell>
        <mxCell id="eut7piU39nOxG2422utZ-39" value="&#xa; &#xa;&#xa;&#xa;&#xa;LLM Agent : Answer Checklist" style="whiteSpace=wrap;strokeWidth=2;fontSize=19;fontStyle=2" vertex="1" parent="1">
          <mxGeometry x="1054" y="640" width="170" height="160" as="geometry" />
        </mxCell>
        <mxCell id="eut7piU39nOxG2422utZ-40" value="" style="shape=umlActor;verticalLabelPosition=bottom;verticalAlign=top;html=1;outlineConnect=0;fontSize=13;strokeWidth=3;" vertex="1" parent="1">
          <mxGeometry x="1120" y="690" width="34" height="60" as="geometry" />
        </mxCell>
      </root>
    </mxGraphModel>
  </diagram>
</mxfile>
